<svg viewBox="0 0 30 34" xmlns="http://www.w3.org/2000/svg"><path d="m29.26 23.55v-13.11c0-1.03-.55-1.99-1.45-2.5l-11.35-6.55c-.89-.52-2-.52-2.89 0l-11.35 6.55c-.89.52-1.45 1.47-1.45 2.5v13.11c0 1.03.55 1.99 1.45 2.5l11.35 6.55c.89.52 2 .52 2.89 0l11.35-6.55c.89-.52 1.45-1.47 1.45-2.5z" fill="#4721a0"/><path d="m11.41 12.14c-.49.08-.82.55-.73 1.03s.55.82 1.03.73.82-.55.73-1.03-.54-.82-1.03-.73z" fill="#fffbff"/><path d="m24.86 22.79c-.32 0-.58.26-.58.58s.26.58.58.58.58-.26.58-.58-.26-.58-.58-.58z" fill="#7151e4"/><path d="m15.02 26.78c-.32 0-.58.26-.58.58s.26.58.58.58.58-.26.58-.58-.26-.58-.58-.58z" fill="#7151e4"/><path d="m18.58 6.66c-.32 0-.58.26-.58.58s.26.58.58.58.58-.26.58-.58-.26-.58-.58-.58z" fill="#7151e4"/><path d="m11.3 6.66c-.32 0-.58.26-.58.58s.26.58.58.58.58-.26.58-.58-.26-.58-.58-.58z" fill="#7151e4"/><path d="m24.86 19.37c.49 0 .9-.4.9-.9s-.4-.9-.9-.9-.89.4-.89.9.4.9.89.9z" fill="#7151e4"/><path d="m19.73 23.58c-.49 0-.89.4-.89.9s.4.9.89.9.9-.4.9-.9-.4-.9-.9-.9z" fill="#fffbff"/><circle cx="9.18" cy="24.78" fill="#fffbff" r=".9"/><path d="m9.18 15.05c-.6 0-1.08.49-1.08 1.08s.49 1.08 1.08 1.08 1.08-.49 1.08-1.08-.49-1.08-1.08-1.08z" fill="#fffbff"/><path d="m15.02 20.75c-.6 0-1.08.49-1.08 1.08s.49 1.08 1.08 1.08 1.08-.49 1.08-1.08-.49-1.08-1.08-1.08z" fill="#7151e4"/><path d="m15.02 9.82c-.6 0-1.08.49-1.08 1.08s.49 1.08 1.08 1.08 1.08-.49 1.08-1.08-.49-1.08-1.08-1.08z" fill="#7151e4"/><g fill="#fffbff"><path d="m19.52 17.7c-.59.1-.99.66-.89 1.25s.66.99 1.25.89.99-.66.89-1.25-.66-.99-1.25-.89z"/><path d="m7.8 9.34c-.1-.59-.66-.99-1.25-.89s-.99.66-.89 1.25.66.99 1.25.89.99-.66.89-1.25z"/><path d="m19.52 11.75h.39v13.29h-.39z"/><path d="m8.99 15.88h.39v9.56h-.39z"/><path d="m6.88 9.41-.08-.07-.22.32 13.08 9.3.09.06.22-.31z"/><path d="m11.66 12.68-3.28 3.85.3.25 3.2-3.77.07-.08z"/><path d="m19.73 13.41c.49 0 .9-.4.9-.9s-.4-.9-.9-.9-.89.4-.89.9.4.9.89.9z"/><path d="m22.05 9.38c-.49 0-.9.4-.9.9s.4.9.9.9.89-.4.89-.9-.4-.9-.89-.9z"/><path d="m24.72 12.43c-.6 0-1.08.49-1.08 1.08s.49 1.08 1.08 1.08 1.08-.49 1.08-1.08-.49-1.08-1.08-1.08z"/><path d="m19.25 11.43h2.77v.39h-2.77z" transform="matrix(.70723018 -.70698336 .70698336 .70723018 -2.17 17.99)"/><path d="m19.59 12.21-.06.39 5.04.78.06-.39z"/><path d="m21.89 9.89-.31.23 2.53 3.27.31-.24z"/></g><path d="m5.04 14.94c.32 0 .58-.26.58-.58s-.26-.58-.58-.58-.58.26-.58.58.26.58.58.58z" fill="#7151e4"/><path d="m5.04 18.36c-.49 0-.9.4-.9.9s.4.9.9.9.89-.4.89-.9-.4-.9-.89-.9z" fill="#7151e4"/></svg>